<?xml version="1.0" encoding="UTF-8"?><svg id="Layer_1" xmlns="http://www.w3.org/2000/svg" viewBox="0 0 1052.36 405.9"><defs><style>.cls-1{fill:#0dc8ff;}.cls-2{fill:#0c2436;}</style></defs><g><path class="cls-1" d="M502.61,145.73c.25-1.26-.33-2.64-1.59-3.79-2.17-1.97-5.85-2.42-8.57-1.05-7.83,3.96-16.38,6.78-24.64,9.5-3.74,1.23-7.47,2.46-11.15,3.79-10.18,3.69-20.69,7.14-30.58,10.36-16.78,5.47-32.04,9.65-46.65,12.8-10.63,2.29-22.99,4.77-35.22,5.19-10.5,.37-17.71-1.81-21.92-6.65-2.17-2.49-2.93-5.69-2.46-10.39,.58-5.86,2.85-11.98,6.55-17.77,7.11,4.99,18.79,1.11,24.77-2.71,4.5-2.88,11.07-9.43,10.74-15.7-.12-2.3-1.28-5.55-6.09-7.93-8.19-4.05-18.37-.89-29.49,9.15-3.66,3.3-6.87,6.94-9.59,10.8-1.19-.66-2.74-.82-4.12-.38-4.31,1.36-8.55,2.93-12.65,4.44-10.49,3.87-20.4,7.52-31.68,8.23-13.53,.86-27.11-2.49-40.27-9.96-4.47-2.54-8.82-5.63-13.02-8.63-6.56-4.67-13.35-9.5-20.92-12.51-10.75-4.27-22.75-3.49-34.72,2.25-8.67,4.16-16.35,10.03-23.78,15.7-2.23,1.7-4.46,3.41-6.72,5.07-.43,.32-1.03,.82-1.74,1.41-2.52,2.11-7.18,6.03-9.72,5.57-.51-.1-.9-.39-1.2-.93-1.55-2.74-1.58-7.16-1.61-11.06,0-1.43-.02-2.79-.1-3.96-.84-11.96-3.46-19.19-8.02-22.08-2.73-1.73-6.06-1.86-9.92-.37-7.62,2.94-13.6,8.27-19.39,13.43-5.24,4.67-10.54,9.99-16.68,16.74-2.82,3.1-5.6,6.25-8.37,9.4-2.61,2.96-5.22,5.92-7.87,8.85-.99,1.1-1.95,2.23-2.91,3.37-2,2.37-4.06,4.82-6.43,6.82l-.49,.42c-.07,.06-.13,.12-.2,.18-.05-.38-.07-.77-.09-.97l-.04-.47c-.78-6.72-.19-13.65,.37-20.36,.15-1.83,.31-3.66,.44-5.48,.25-3.58,.5-7.83,.46-12.21,0-.86,0-1.72,.02-2.57,.06-2.85,.12-5.8-.76-8.66-.66-2.16-4.36-4.93-6.64-4.33-.49,.12-2.02,.74-1.47,3.35,.59,2.79-.02,6.63-.56,10.01-.17,1.03-.32,2.01-.44,2.9-.39,3.06-.89,6.1-1.39,9.15l-.62,3.84c-1.22,7.68-2.47,15.63-2.29,23.6,.1,4.41,1.24,7.68,3.41,9.73,1.78,1.68,4.22,2.53,7.27,2.53,.18,0,.36,0,.54,0,6.36-.2,11.5-4.91,15.28-8.98,4.25-4.6,8.37-9.45,12.35-14.14,5.37-6.33,10.93-12.87,16.86-18.84l1.11-1.12c4.68-4.72,9.51-9.59,14.97-13.14,2.89-1.87,3.93-2.15,5.21-.35,1.75,2.45,2.32,6.23,2.8,9.32,.46,2.99,.68,6.08,.9,9.07,.25,3.44,.5,7,1.12,10.48,1.17,6.62,4.06,10.4,8.57,11.23,5.67,1.04,11.36-2.88,15.52-5.75,3.61-2.49,7.17-5.14,10.61-7.7,2.07-1.54,4.13-3.07,6.22-4.59,9.71-7.04,21.19-14.47,33.9-13.72,10.61,.63,19.66,7.12,28.41,13.4,2.43,1.74,4.94,3.54,7.4,5.15,15.5,10.12,29.43,15.23,43.83,16.07,8.21,.5,16.67-.3,25.16-2.32,9.7-2.31,17.28-7.34,25.3-12.67,.74-.49,1.5-.97,2.24-1.46-1.25,3.1-2.21,6.27-2.83,9.46-1.48,7.67-.72,13.48,2.37,18.3,2.8,4.36,7.06,7.79,12.31,9.91,5.96,2.41,12.45,3.13,19.01,3.13,3.97,0,7.97-.26,11.89-.58,17.63-1.41,35.11-5.46,51.37-9.64,14.5-3.72,27.7-7.73,40.36-12.26l2.51-.89c6.12-2.18,12.44-4.43,18.47-7.08,4.13-1.81,8.27-3.78,12.27-5.69,7.18-3.42,14.62-6.96,22.22-9.69,1.89-.68,2.39-1.9,2.53-2.57Zm-171.05-4.82c3.11-3.44,6.68-6.43,10.4-8.72,5.29-3.26,8.95-4.44,10.87-3.51-.1,.28-.21,.56-.36,.85-.66,1.52-1.87,2.82-2.97,3.89-1.27,1.24-2.79,2.43-4.64,3.63-3.28,2.13-6.03,3.27-8.66,3.6-.94,.12-2.85,.32-4.64,.26Z"/><path class="cls-1" d="M585.55,205.79c-4.91-4.03-9.54-7.83-12.36-13.76-2.85-6-4.79-13.03-5.9-21.49-2.04-15.45-1.1-31.5-.2-47.03l.09-1.51c1.02-17.74,3.09-36.06,6.14-54.45,.44-2.68,.87-5.4,1.3-8.15,.88-5.64,1.8-11.47,2.88-17.04,1.23-3.58,2.46-7.16,3.65-10.75,.3-.92,.62-1.83,.94-2.73,1.4-4,2.85-8.14,2.97-12.61,.06-2.18-1.73-3.93-4.68-4.58-2.96-.65-6.51-.01-7.57,2.47-3.57,8.3-5.55,16.99-6.98,24.26-1.43,4.17-2.87,8.33-4.35,12.48-1.56,4.41-2.83,8.45-3.86,12.36-2.83,10.68-6.16,23.07-9.9,34.95-3.46,10.97-7.53,21.93-11.52,32.56-.34-1.9-1.28-3.63-3.11-4.97-2.57-1.89-5.25-2.48-7.94-1.75-8.44,2.29-14.87,17.28-17.96,24.48l-.78,1.81c-3.36,7.6-6.13,15.83-8.46,25.14-.24,.97-.51,1.99-.79,3.04-1.8,6.83-4.04,15.32-2.48,22.17,.59,2.59,2.3,4.71,4.82,5.96,2.94,1.47,6.58,1.56,9.52,.25,2.41-1.08,4.7-2.81,7.01-5.3,10.93-11.79,17.3-28.5,22.92-43.25l1.34-3.5c4.88-12.7,8.86-25.91,12.72-38.68,.69-2.29,1.38-4.58,2.08-6.87-1.15,12.04-1.89,24-2.19,35.67-.41,15.77,0,28.91,3.28,41.77,2.04,8.01,4.75,14.42,8.28,19.59,1.92,2.82,4.11,5.08,6.67,6.91,3.29,2.34,5.93,2.43,9.28,2.56,.71,.02,1.45,.05,2.24,.1,.07,0,.15,0,.24,0,1.83,0,6.64-1.06,7.64-3.5,.27-.67,.49-2.02-1.2-3.49-1.26-1.09-2.53-2.13-3.78-3.16Zm-69.02-26.88c-2.28,4.55-5.08,9.83-8.57,14.54-.35,.47-.7,.92-1.04,1.34,.32-2.91,.79-5.91,.9-6.41,.92-4.49,2-9.01,3.18-13.43,.77-2.86,1.62-5.74,2.55-8.57,.19-.08,.37-.18,.55-.32,5.84-4.43,10.68-9.42,14.43-14.87-3.57,9.26-7.46,18.69-11.99,27.72Z"/><path class="cls-1" d="M604.41,85.53c.34,0,.69-.06,1.04-.19l1.72-.68c1.41-.56,2.82-1.12,4.25-1.62,.54-.19,1.12-.35,1.68-.51,1.06-.3,2.16-.61,3.17-1.11,1.69-.83,2.19-2.55,1.3-4.5-1.08-2.38-4.54-5.24-7.24-4.08-1.39,.58-2.8,1.06-4.21,1.54-2,.68-4.06,1.38-6.04,2.37-.61,.3-1.02,.83-1.19,1.5-.41,1.62,.69,3.72,1.11,4.33,.83,1.2,2.56,2.95,4.4,2.95Z"/><path class="cls-1" d="M884.18,145.84c-2.39-2.6-6.64-1.03-8.96,.13-7.86,3.96-15.65,7.53-23.17,10.61l-2.81,1.16c-7.5,3.11-15.26,6.32-23.28,7.32-7.86,.98-15.28-.26-21.49-3.6-7.09-3.82-12.15-10.89-16.22-16.58-.61-.84-1.22-1.72-1.84-2.61-6.91-9.87-15.49-22.16-29.7-15.33-5.58,2.68-10.67,6.95-15.59,11.08-1.71,1.43-3.39,2.85-5.06,4.16-3.32,2.62-6.62,5.26-9.9,7.92l-.88,.72c-.2,.17-.4,.33-.61,.5,.69-1.59,1.57-3.16,2.42-4.7,.44-.78,.86-1.54,1.24-2.27,2.7-5.18,5.27-9.11,8.08-12.39,3.86-4.5,7.19-7.58,10.49-9.7,3.77-2.42,7.84-1.52,12.15-.57l.27,.06c1.58,.34,2.87-.6,3.31-2.41,.51-2.12-.2-5.43-2.51-6.03-4.85-1.26-10.35-2.69-15.85-.65-5.4,2-11.14,6.49-17.56,13.75-4.12,4.66-7.3,9.9-9.93,14.69-2.43-2.1-6.8-.67-9.04,1-12.76,9.58-26.65,19.61-41.78,28.14-12.61,7.11-29.88,16.83-44.12,10.42-7.69-3.46-12.8-12.42-15.19-26.64-1.08-6.47-1.33-13.68-.76-22.05l.12-1.74c.54-8.06,1.15-17.2,4.41-24.62,1-2.29-1.3-5.03-4.11-6.36-2.41-1.13-4.42-.81-5.26,.86-2.91,5.73-4.17,11.91-5.11,17.73-1.17,7.29-2.38,14.83-2.69,22.42-.58,14.34,1.61,26.49,6.5,36.1,5.67,11.13,15.27,17.3,27.78,17.82,.63,.02,1.26,.04,1.89,.04,13.58,0,26.34-6.09,39.28-12.89,8.09-4.25,15.12-8.42,21.49-12.75,4.9-3.33,9.45-7.2,13.86-10.94,2.47-2.1,5.03-4.22,7.63-6.28-1.06,2.89-1.63,5.91-1.06,9.17,.53,3.04,3.97,3.93,6.83,3.78,7.69-.41,13.43-5.12,18.97-9.68l3.57-2.9c6.04-4.89,12.28-9.94,18.59-14.65l.53-.4c1.38-1.06,1.75-1.34,3.16-.8,1.34,.51,2.7,1.88,3.84,3.05,2.19,2.23,3.99,4.95,5.72,7.59l1.51,2.29c3.87,5.83,7.87,11.86,12.86,16.94,8.3,8.46,19.58,12.9,32.13,12.9,4.49,0,9.14-.57,13.88-1.72,7.64-1.86,14.98-4.76,20.52-7.07,6.88-2.88,13.06-6.81,19.03-10.61,3.22-2.05,6.55-4.17,9.97-6.11,1.47-.83,3.08-2.49,3.37-4.32,.18-1.1-.14-2.13-.92-2.98Z"/></g><g><path class="cls-2" d="M48.66,369.59V204.62h118.68v30.62H84.03v35.84h68.12v30.62H84.03v37.27h84.5v30.62H48.66Z"/><path class="cls-2" d="M213.63,369.59l-43.67-117.02h36.32l26.82,80.7,26.35-80.7h36.32l-43.44,117.02h-38.69Z"/><path class="cls-2" d="M294.09,311.2c0-36.08,25.87-61.48,62.66-61.48s62.9,25.4,62.9,61.48-25.87,61.24-62.9,61.24-62.66-25.4-62.66-61.24Zm89.96,0c0-21.6-10.68-34.89-27.3-34.89s-27.3,13.06-27.3,34.89,10.68,34.66,27.3,34.66,27.3-13.06,27.3-34.66Z"/><path class="cls-2" d="M434.38,369.59V204.62h34.18v164.97h-34.18Z"/><path class="cls-2" d="M489.92,325.68v-73.11h34.42v68.36c0,15.43,6.65,23.5,19.23,23.5s23.26-8.78,23.26-25.4v-66.46h34.42v117.02h-32.52v-16.62c-7.6,11.87-19.7,19.46-34.89,19.46-28.25,0-43.91-17.33-43.91-46.76Z"/><path class="cls-2" d="M628.3,332.8v-52.22h-16.38v-28.01h18.04l8.55-33.71h23.97v33.71h45.57v28.01h-45.57v49.61c0,8.07,3.09,12.58,9.49,12.58s11.16-5.46,16.38-17.8l25.63,14c-10.92,21.36-25.16,33.47-46.29,33.47-25.63,0-39.4-12.34-39.4-39.64Z"/><path class="cls-2" d="M720.16,220.29c0-10.68,8.54-18.75,19.23-18.75s19.46,8.07,19.46,18.75-8.54,18.75-19.46,18.75-19.23-8.07-19.23-18.75Zm2.14,149.3v-117.02h34.18v117.02h-34.18Z"/><path class="cls-2" d="M771.43,311.2c0-36.08,25.87-61.48,62.66-61.48s62.9,25.4,62.9,61.48-25.87,61.24-62.9,61.24-62.66-25.4-62.66-61.24Zm89.96,0c0-21.6-10.68-34.89-27.3-34.89s-27.3,13.06-27.3,34.89,10.68,34.66,27.3,34.66,27.3-13.06,27.3-34.66Z"/><path class="cls-2" d="M911.71,369.59v-117.02h32.28v16.62c7.6-11.87,19.94-19.46,35.61-19.46,28.96,0,44.86,17.33,44.86,46.52v73.35h-34.42v-67.89c0-15.67-6.88-23.97-20.18-23.97s-23.97,9.02-23.97,26.11v65.75h-34.18Z"/></g></svg>